<svg width="40" height="40" viewBox="0 0 40 40" fill="none" xmlns="http://www.w3.org/2000/svg">
<rect width="40" height="40" rx="20" fill="#F0F4F5"/>
<path fill-rule="evenodd" clip-rule="evenodd" d="M14.0013 16C14.0013 14.4087 14.6335 12.8826 15.7587 11.7574C16.8839 10.6321 18.41 10 20.0013 10C21.5926 10 23.1187 10.6321 24.244 11.7574C25.3692 12.8826 26.0013 14.4087 26.0013 16C26.0013 17.5913 25.3692 19.1174 24.244 20.2426C23.1187 21.3679 21.5926 22 20.0013 22C18.41 22 16.8839 21.3679 15.7587 20.2426C14.6335 19.1174 14.0013 17.5913 14.0013 16ZM13.4313 24.902C15.0583 24.223 17.2253 24 20.0013 24C22.7723 24 24.9363 24.22 26.5603 24.898C28.3023 25.625 29.3723 26.861 29.9423 28.658C29.9914 28.8124 30.0034 28.9762 29.9772 29.1361C29.9511 29.296 29.8876 29.4475 29.7919 29.5782C29.6963 29.709 29.5711 29.8153 29.4266 29.8886C29.2821 29.9619 29.1223 30.0001 28.9603 30H11.0363C10.3463 30 9.84832 29.33 10.0583 28.665C10.6263 26.868 11.6923 25.632 13.4323 24.903L13.4313 24.902Z" fill="#747474"/>
</svg>
