<svg xmlns="http://www.w3.org/2000/svg" xmlns:xlink="http://www.w3.org/1999/xlink" viewBox="0 0 480 192">
  <defs>
    <style>
      .cls-1, .cls-10, .cls-6 {
        fill: none;
      }

      .cls-1 {
        stroke: #cc5a29;
        stroke-width: 5px;
      }

      .cls-1, .cls-10, .cls-6, .cls-8 {
        stroke-linecap: round;
      }

      .cls-1, .cls-6, .cls-8, .cls-9 {
        stroke-miterlimit: 10;
      }

      .cls-2 {
        fill: #7f5230;
      }

      .cls-15, .cls-16, .cls-18, .cls-21, .cls-3 {
        fill: #e2903c;
      }

      .cls-4 {
        fill: #bc5d1d;
      }

      .cls-5 {
        fill: url(#linear-gradient);
      }

      .cls-6, .cls-8, .cls-9 {
        stroke: #fff;
      }

      .cls-7 {
        fill: url(#linear-gradient-2);
      }

      .cls-8 {
        fill: #fff;
      }

      .cls-11, .cls-17, .cls-19, .cls-20, .cls-22, .cls-9 {
        fill: #cc5a29;
      }

      .cls-9 {
        stroke-width: 0.75px;
      }

      .cls-10 {
        stroke: #f2f4e3;
        stroke-linejoin: round;
        stroke-width: 2px;
      }

      .cls-11 {
        font-size: 26px;
      }

      .cls-11, .cls-15, .cls-16, .cls-17, .cls-18, .cls-19, .cls-20, .cls-21, .cls-22 {
        font-family: DoUbLeBaSsLight, DoUbLeBaSs-Light;
      }

      .cls-12 {
        fill: #f2f4e3;
      }

      .cls-13 {
        fill: #070700;
      }

      .cls-14 {
        fill: #262625;
      }

      .cls-15 {
        font-size: 34px;
      }

      .cls-16 {
        font-size: 41px;
      }

      .cls-17 {
        font-size: 57px;
      }

      .cls-18 {
        font-size: 38px;
      }

      .cls-19 {
        font-size: 44px;
      }

      .cls-20 {
        font-size: 62px;
      }

      .cls-21 {
        font-size: 33px;
      }

      .cls-22 {
        font-size: 28px;
      }
    </style>
    <linearGradient id="linear-gradient" x1="344.34" y1="76.09" x2="385.58" y2="81.46" gradientTransform="translate(-266.01 56.27) rotate(-5.58)" gradientUnits="userSpaceOnUse">
      <stop offset="0" stop-color="#bad9e8"/>
      <stop offset="0.16" stop-color="#99bfd3" stop-opacity="0.75"/>
      <stop offset="0.31" stop-color="#7ca8c0" stop-opacity="0.52"/>
      <stop offset="0.47" stop-color="#6494b1" stop-opacity="0.33"/>
      <stop offset="0.62" stop-color="#5185a5" stop-opacity="0.19"/>
      <stop offset="0.76" stop-color="#447b9c" stop-opacity="0.08"/>
      <stop offset="0.89" stop-color="#3c7497" stop-opacity="0.02"/>
      <stop offset="1" stop-color="#397295" stop-opacity="0"/>
    </linearGradient>
    <linearGradient id="linear-gradient-2" x1="81.35" y1="36.29" x2="127.76" y2="42.35" gradientTransform="matrix(-0.99, -0.14, -0.14, 0.99, 473.82, 71.59)" xlink:href="#linear-gradient"/>
  </defs>
  <g id="Layer_1" data-name="Layer 1">
    <path class="cls-1" d="M202.35,167.05V150.23"/>
    <line class="cls-1" x1="192.92" y1="150.23" x2="192.92" y2="167.05"/>
    <line class="cls-1" x1="183.5" y1="150.23" x2="183.5" y2="167.05"/>
    <path class="cls-1" d="M266,167.72V150.91"/>
    <line class="cls-1" x1="256.58" y1="150.91" x2="256.58" y2="167.72"/>
    <line class="cls-1" x1="247.15" y1="150.91" x2="247.15" y2="167.72"/>
    <path class="cls-2" d="M345.42,42.83v95.44c0,.22,0,.42,0,.63a.86.86,0,0,1,0,.16c0,.19,0,.35-.07.52s0,.06,0,.09a3.23,3.23,0,0,1-.11.54.19.19,0,0,1,0,.07,3.62,3.62,0,0,1-.13.47.76.76,0,0,0-.06.18c0,.12-.09.23-.14.35a6.53,6.53,0,0,1-.31.66,2.86,2.86,0,0,1-.24.42,4,4,0,0,1-.22.34c-.1.14-.21.28-.32.41h0l-2.13,1.71-5.44,4.35-10.78,8.56a7.45,7.45,0,0,0,2.14-5.36V57a7.47,7.47,0,0,0-2.14-5.37l19-12.65a.2.2,0,0,1,.06.11,1.83,1.83,0,0,1,.14.28,5.08,5.08,0,0,1,.44,1,2.62,2.62,0,0,1,.11.4A7.84,7.84,0,0,1,345.42,42.83Z"/>
    <path class="cls-3" d="M327.53,57v95.43a7.45,7.45,0,0,1-2.14,5.36,5.58,5.58,0,0,1-4,1.74H127.57c-3.4,0-6.15-3.18-6.15-7.1V57a7.66,7.66,0,0,1,2.12-5.37,7.24,7.24,0,0,1,.73-.62,5.47,5.47,0,0,1,3.3-1.11H321.38a5.61,5.61,0,0,1,4,1.73A7.47,7.47,0,0,1,327.53,57Z"/>
    <path class="cls-4" d="M344.39,38.93l-19,12.65a5.6,5.6,0,0,0-4-1.73H127.58a5.39,5.39,0,0,0-1.66.26l21.49-13.18.06,0,1-.6a5.32,5.32,0,0,1,2.31-.52H339.83a5.68,5.68,0,0,1,3.44,1.7A6.44,6.44,0,0,1,344.39,38.93Z"/>
    <path class="cls-5" d="M133.69,93.19c-13-13-22-21.2-29-24.72-8.35-4.19-17.23-5.45-20.79-3-12.6,8.62,3.69,24.3,18.6,28.75,1.64.49-30-4.12-28.41,11.85.73,7.51,26.61,7.15,26.57,7.15-5.79-.78-15.62,1.56-19.12,7.24a7.81,7.81,0,0,0-.68,6.79c1.69,4.14,7.42,5.18,10.31,5.71,14.81,2.71,39.91-13.2,44.39-16.77Z"/>
    <line class="cls-6" x1="85.67" y1="72.28" x2="119.54" y2="94.3"/>
    <line class="cls-6" x1="89.23" y1="124.88" x2="118.63" y2="115.35"/>
    <polyline class="cls-6" points="81.98 103.22 119.08 104.83 79.64 103.12"/>
    <g>
      <path class="cls-7" d="M332.67,86.83c15.29-15.57,25.71-25.3,33.77-29.32,9.59-4.78,19.63-5.88,23.52-2.63C403.71,66.33,384.63,85,367.64,89.8c-1.87.52,33.91-3.54,31.38,16.34-1.2,9.34-30.27,7.49-30.23,7.49,6.54-.66,17.49,2.79,21.14,10.08a10.74,10.74,0,0,1,.44,8.52c-2.1,5.08-8.59,6.07-11.87,6.58-16.79,2.58-44.24-18.66-49.1-23.35"/>
      <line class="cls-8" x1="387.68" y1="63.3" x2="348.52" y2="88.98"/>
      <line class="cls-8" x1="381.12" y1="128.82" x2="348.52" y2="115.32"/>
      <polyline class="cls-8" points="390.32 102.15 348.52 102.15 392.96 102.15"/>
    </g>
    <rect class="cls-9" x="297" y="142" width="18" height="11" rx="1.68"/>
    <path class="cls-10" d="M294,78.15c-22,7.11-47-15.15-70.08-1.89C207.32,85.79,213,120,211,133.12c-.35,2.32-4.09,1.76-4.64-.56-2.31-9.89,3.67-47.56-8-55.35-12.25-8.19-33.15,6.63-47.61,3.55"/>
  </g>
  <g id="Layer_2" data-name="Layer 2">
    <text class="cls-11" transform="translate(302.13 28.32)">?</text>
    <g>
      <circle class="cls-12" cx="178.67" cy="99.33" r="13.67"/>
      <circle class="cls-13" cx="179.81" cy="98.19" r="13.67"/>
      <ellipse class="cls-14" cx="180" cy="93.5" rx="9" ry="7.5"/>
      <ellipse class="cls-12" cx="183.33" cy="93.77" rx="2.67" ry="2.71"/>
    </g>
    <g>
      <circle class="cls-12" cx="244" cy="98.25" r="13.67"/>
      <circle class="cls-13" cx="245.14" cy="97.11" r="13.67"/>
      <ellipse class="cls-14" cx="245.33" cy="92.43" rx="9" ry="7.5"/>
      <ellipse class="cls-12" cx="248.66" cy="92.7" rx="2.67" ry="2.71"/>
    </g>
    <text class="cls-15" transform="translate(115 40.26)">?</text>
    <text class="cls-16" transform="translate(353.13 49.46)">?</text>
    <text class="cls-17" transform="translate(401.13 145.67)">?</text>
    <text class="cls-18" transform="translate(347.13 176.56)">?</text>
    <text class="cls-19" transform="translate(95 176.69)">?</text>
    <text class="cls-20" transform="translate(41.13 100.07)">?</text>
    <text class="cls-21" transform="translate(63.13 156.84)">?</text>
    <text class="cls-22" transform="translate(396.53 67.39)">?</text>
  </g>
</svg>
