<svg id="Layer_1" data-name="Layer 1" xmlns="http://www.w3.org/2000/svg" viewBox="0 0 480 192">
  <defs>
    <style>
      .cls-1 {
        fill: #7f5230;
      }

      .cls-2 {
        fill: #e2903c;
      }

      .cls-3 {
        fill: #bc5d1d;
      }

      .cls-4, .cls-5 {
        fill: none;
        stroke: #f2f4e3;
        stroke-linecap: round;
        stroke-width: 2px;
      }

      .cls-4 {
        stroke-linejoin: round;
      }

      .cls-5 {
        stroke-miterlimit: 10;
      }
    </style>
  </defs>
  <path class="cls-1" d="M352.42,47.83v95.44c0,.22,0,.42,0,.63a.86.86,0,0,1,0,.16c0,.19,0,.35-.07.52s0,.06,0,.09a3.23,3.23,0,0,1-.11.54.19.19,0,0,1,0,.07,3.62,3.62,0,0,1-.13.47.76.76,0,0,0-.06.18c0,.12-.09.23-.14.35a6.53,6.53,0,0,1-.31.66,2.86,2.86,0,0,1-.24.42,4,4,0,0,1-.22.34c-.1.14-.21.28-.32.41h0l-2.13,1.71-5.44,4.35-10.78,8.56a7.45,7.45,0,0,0,2.14-5.36V62a7.47,7.47,0,0,0-2.14-5.37l19-12.65a.2.2,0,0,1,.06.11,1.83,1.83,0,0,1,.14.28,5.08,5.08,0,0,1,.44,1,2.62,2.62,0,0,1,.11.4A7.84,7.84,0,0,1,352.42,47.83Z"/>
  <path class="cls-2" d="M334.53,62v95.43a7.45,7.45,0,0,1-2.14,5.36,5.58,5.58,0,0,1-4,1.74H134.57c-3.4,0-6.15-3.18-6.15-7.1V62a7.66,7.66,0,0,1,2.12-5.37,7.24,7.24,0,0,1,.73-.62,5.47,5.47,0,0,1,3.3-1.11H328.38a5.61,5.61,0,0,1,4,1.73A7.47,7.47,0,0,1,334.53,62Z"/>
  <path class="cls-3" d="M351.39,43.93l-19,12.65a5.6,5.6,0,0,0-4-1.73H134.58a5.39,5.39,0,0,0-1.66.26l21.49-13.18.06,0,1-.6a5.32,5.32,0,0,1,2.31-.52H346.83a5.68,5.68,0,0,1,3.44,1.7A6.44,6.44,0,0,1,351.39,43.93Z"/>
  <polyline class="cls-4" points="312 82 227 82 222 143 217 82 151 82"/>
  <line class="cls-5" x1="270" y1="111" x2="247" y2="110.88"/>
  <line class="cls-5" x1="198" y1="111" x2="175.64" y2="111.12"/>
</svg>
