<svg width="24" height="24" viewBox="0 0 24 24" fill="none" xmlns="http://www.w3.org/2000/svg">
<path d="M3.17212 5.12995L21.1721 19.1299M14.3651 13.8459C13.8786 14.4684 13.1663 14.8738 12.3827 14.9742C11.5991 15.0746 10.8075 14.8618 10.1798 14.3822C9.55214 13.9025 9.139 13.1946 9.03009 12.4121C8.92117 11.6297 9.12529 10.8358 9.59812 10.2029M9.00012 5.62695C10.2979 5.03693 11.7448 4.85705 13.1476 5.11133C14.5503 5.36561 15.842 6.04194 16.8501 7.04995L19.8511 10.0519C20.3481 10.5489 20.5961 10.7969 20.7361 11.0599C20.8902 11.3493 20.9708 11.6721 20.9708 11.9999C20.9708 12.3278 20.8902 12.6506 20.7361 12.9399C20.5961 13.2029 20.3481 13.4509 19.8511 13.9479L19.8001 13.9999" stroke="#747474" stroke-width="2" stroke-linecap="round" stroke-linejoin="round"/>
<path d="M6.3091 7.69092L4.8291 9.17092C3.4951 10.5049 2.8291 11.1709 2.8291 11.9999C2.8291 12.8279 3.4951 13.4949 4.8291 14.8279L6.9491 16.9499C7.59912 17.6 8.37083 18.1157 9.22015 18.4675C10.0695 18.8193 10.9798 19.0004 11.8991 19.0004C12.8184 19.0004 13.7287 18.8193 14.5781 18.4675C15.4274 18.1157 16.1991 17.6 16.8491 16.9499L17.4541 16.3449" stroke="#747474" stroke-width="2" stroke-linecap="round" stroke-linejoin="round"/>
</svg>
