<svg width="25" height="24" viewBox="0 0 25 24" fill="none" xmlns="http://www.w3.org/2000/svg">
<path d="M15.7502 12C15.7502 12.7956 15.4342 13.5587 14.8716 14.1213C14.309 14.6839 13.5459 15 12.7502 15C11.9546 15 11.1915 14.6839 10.6289 14.1213C10.0663 13.5587 9.75024 12.7956 9.75024 12C9.75024 11.2044 10.0663 10.4413 10.6289 9.87868C11.1915 9.31607 11.9546 9 12.7502 9C13.5459 9 14.309 9.31607 14.8716 9.87868C15.4342 10.4413 15.7502 11.2044 15.7502 12Z" stroke="#747474" stroke-width="2" stroke-linecap="round" stroke-linejoin="round"/>
<path d="M7.70012 7.05002C8.35014 6.39993 9.12185 5.88425 9.97118 5.53242C10.8205 5.1806 11.7308 4.99951 12.6501 4.99951C13.5694 4.99951 14.4797 5.1806 15.3291 5.53242C16.1784 5.88425 16.9501 6.39993 17.6001 7.05002L19.7201 9.17202C21.0541 10.505 21.7201 11.172 21.7201 12C21.7201 12.828 21.0541 13.495 19.7201 14.828L17.6001 16.95C16.9501 17.6001 16.1784 18.1158 15.3291 18.4676C14.4797 18.8194 13.5694 19.0005 12.6501 19.0005C11.7308 19.0005 10.8205 18.8194 9.97118 18.4676C9.12185 18.1158 8.35014 17.6001 7.70012 16.95L5.57812 14.828C4.24513 13.495 3.57812 12.828 3.57812 12C3.57812 11.172 4.24513 10.505 5.57812 9.17202L7.70012 7.05002Z" stroke="#747474" stroke-width="2" stroke-linecap="round" stroke-linejoin="round"/>
</svg>
