<svg xmlns="http://www.w3.org/2000/svg" width="17" height="16" viewBox="0 0 17 16" fill="none">
    <path fill-rule="evenodd" clip-rule="evenodd" d="M4.49902 8.00063C4.49902 7.86802 4.5517 7.74085 4.64547 7.64708C4.73924 7.55331 4.86642 7.50063 4.99902 7.50063H10.792L8.64502 5.35463C8.55114 5.26075 8.49839 5.13341 8.49839 5.00063C8.49839 4.86786 8.55114 4.74052 8.64502 4.64663C8.73891 4.55275 8.86625 4.5 8.99902 4.5C9.1318 4.5 9.25914 4.55275 9.35302 4.64663L12.353 7.64663C12.3996 7.69308 12.4365 7.74825 12.4617 7.809C12.4869 7.86974 12.4999 7.93486 12.4999 8.00063C12.4999 8.0664 12.4869 8.13152 12.4617 8.19227C12.4365 8.25301 12.3996 8.30819 12.353 8.35463L9.35302 11.3546C9.25914 11.4485 9.1318 11.5013 8.99902 11.5013C8.86625 11.5013 8.73891 11.4485 8.64502 11.3546C8.55114 11.2607 8.49839 11.1334 8.49839 11.0006C8.49839 10.8679 8.55114 10.7405 8.64502 10.6466L10.792 8.50063H4.99902C4.86642 8.50063 4.73924 8.44795 4.64547 8.35419C4.5517 8.26042 4.49902 8.13324 4.49902 8.00063Z" fill="#747474"/>
</svg>