<svg width="24" height="24" viewBox="0 0 24 24" fill="none" xmlns="http://www.w3.org/2000/svg">
<path d="M13 15C13 15.2652 12.8946 15.5196 12.7071 15.7071C12.5196 15.8946 12.2652 16 12 16C11.7348 16 11.4804 15.8946 11.2929 15.7071C11.1054 15.5196 11 15.2652 11 15C11 14.7348 11.1054 14.4804 11.2929 14.2929C11.4804 14.1054 11.7348 14 12 14C12.2652 14 12.5196 14.1054 12.7071 14.2929C12.8946 14.4804 13 14.7348 13 15Z" stroke="#747474" stroke-width="2" stroke-linecap="round" stroke-linejoin="round"/>
<path d="M9 9C7.114 9 6.172 9 5.586 9.586C5 10.172 5 11.114 5 13V17C5 18.886 5 19.828 5.586 20.414C6.172 21 7.114 21 9 21H15C16.886 21 17.828 21 18.414 20.414C19 19.828 19 18.886 19 17V13C19 11.114 19 10.172 18.414 9.586C17.828 9 16.886 9 15 9H9ZM9 9V5C9 4.46957 9.21071 3.96086 9.58579 3.58579C9.96086 3.21071 10.4696 3 11 3H13.063C14.133 3 15 3.867 15 4.938V5" stroke="#747474" stroke-width="2" stroke-linecap="round" stroke-linejoin="round"/>
</svg>
