<svg width="20" height="20" viewBox="0 0 20 20" fill="none" xmlns="http://www.w3.org/2000/svg">
<path d="M19 10H11M16 13L18.913 10.087C18.9244 10.0756 18.9335 10.062 18.9397 10.0471C18.9459 10.0322 18.9491 10.0162 18.9491 10C18.9491 9.98384 18.9459 9.96784 18.9397 9.95291C18.9335 9.93799 18.9244 9.92442 18.913 9.913L16 7M14 3V2.5C14 2.10218 13.842 1.72064 13.5607 1.43934C13.2794 1.15804 12.8978 1 12.5 1H3C2.46957 1 1.96086 1.21071 1.58579 1.58579C1.21071 1.96086 1 2.46957 1 3V17C1 17.5304 1.21071 18.0391 1.58579 18.4142C1.96086 18.7893 2.46957 19 3 19H12.5C12.8978 19 13.2794 18.842 13.5607 18.5607C13.842 18.2794 14 17.8978 14 17.5V17" stroke="#747474" stroke-width="2" stroke-linecap="round" stroke-linejoin="round"/>
</svg>
