<svg width="24" height="24" viewBox="0 0 24 24" fill="none" xmlns="http://www.w3.org/2000/svg">
<path d="M20.5 15C18.956 18.045 15.762 21 12 21C7.148 21 3.585 17.51 3 13M3.5 9C4.891 5.65 8.065 3 12 3C16.782 3 20.423 6.49 21 11" stroke="#747474" stroke-width="2" stroke-linecap="round" stroke-linejoin="round"/>
<path d="M21 21V15.6C21 15.4409 20.9368 15.2883 20.8243 15.1757C20.7117 15.0632 20.5591 15 20.4 15H15M9 9H3.6C3.44087 9 3.28826 8.93679 3.17574 8.82426C3.06321 8.71174 3 8.55913 3 8.4V3" stroke="#747474" stroke-width="2" stroke-linecap="round" stroke-linejoin="round"/>
</svg>
