<svg width="28" height="28" viewBox="0 0 28 28" fill="none" xmlns="http://www.w3.org/2000/svg">
<path d="M15.3688 0.669609C16.3418 0.665876 17.3148 0.675654 18.2875 0.698943L18.5462 0.708276C18.8448 0.718943 19.1395 0.732276 19.4955 0.748276C20.9142 0.814943 21.8822 1.03894 22.7315 1.36828C23.6115 1.70694 24.3528 2.16561 25.0942 2.90694C25.772 3.57308 26.2966 4.37887 26.6315 5.26828C26.9608 6.11761 27.1848 7.08694 27.2515 8.50561C27.2675 8.86028 27.2808 9.15628 27.2915 9.45494L27.2995 9.71361C27.3232 10.6859 27.3334 11.6584 27.3302 12.6309L27.3315 13.6256V15.3723C27.3348 16.3453 27.3246 17.3182 27.3008 18.2909L27.2928 18.5496C27.2822 18.8483 27.2688 19.1429 27.2528 19.4989C27.1862 20.9176 26.9595 21.8856 26.6315 22.7349C26.2977 23.6253 25.773 24.4317 25.0942 25.0976C24.4275 25.7754 23.6212 26.2999 22.7315 26.6349C21.8822 26.9643 20.9142 27.1883 19.4955 27.2549C19.1395 27.2709 18.8448 27.2843 18.5462 27.2949L18.2875 27.3029C17.3148 27.3266 16.3418 27.3369 15.3688 27.3336L14.3742 27.3349H12.6288C11.6558 27.3382 10.6829 27.328 9.71017 27.3043L9.4515 27.2963C9.13498 27.2848 8.81853 27.2715 8.50216 27.2563C7.0835 27.1896 6.1155 26.9629 5.26483 26.6349C4.37508 26.3007 3.56915 25.776 2.9035 25.0976C2.22489 24.4313 1.6998 23.625 1.36483 22.7349C1.0355 21.8856 0.811498 20.9176 0.744832 19.4989C0.729982 19.1826 0.716649 18.8661 0.704832 18.5496L0.698165 18.2909C0.673583 17.3183 0.662471 16.3453 0.664832 15.3723V12.6309C0.661111 11.6584 0.670889 10.6859 0.694165 9.71361L0.703499 9.45494C0.714165 9.15628 0.727499 8.86028 0.743499 8.50561C0.810165 7.08561 1.03417 6.11894 1.3635 5.26828C1.69866 4.37844 2.22478 3.57287 2.90483 2.90828C3.57002 2.22928 4.37545 1.70371 5.26483 1.36828C6.1155 1.03894 7.08216 0.814943 8.50216 0.748276L9.4515 0.708276L9.71017 0.70161C10.6824 0.67704 11.6549 0.665928 12.6275 0.668276L15.3688 0.669609ZM13.9982 7.33628C13.1148 7.32378 12.2378 7.48697 11.4181 7.81637C10.5984 8.14576 9.85236 8.63478 9.22329 9.25502C8.59422 9.87525 8.0947 10.6143 7.75375 11.4293C7.4128 12.2443 7.23722 13.1189 7.23722 14.0023C7.23722 14.8857 7.4128 15.7603 7.75375 16.5753C8.0947 17.3902 8.59422 18.1293 9.22329 18.7495C9.85236 19.3698 10.5984 19.8588 11.4181 20.1882C12.2378 20.5176 13.1148 20.6808 13.9982 20.6683C15.7663 20.6683 17.462 19.9659 18.7122 18.7157C19.9625 17.4654 20.6648 15.7697 20.6648 14.0016C20.6648 12.2335 19.9625 10.5378 18.7122 9.28756C17.462 8.03732 15.7663 7.33628 13.9982 7.33628ZM13.9982 10.0029C14.5295 9.99315 15.0575 10.0893 15.5512 10.2859C16.045 10.4824 16.4946 10.7754 16.8739 11.1477C17.2531 11.5199 17.5544 11.9641 17.7601 12.4541C17.9658 12.9441 18.0718 13.4702 18.0719 14.0016C18.0719 14.533 17.9661 15.0592 17.7606 15.5492C17.5551 16.0393 17.254 16.4835 16.8748 16.8559C16.4957 17.2283 16.0462 17.5214 15.5525 17.7181C15.0588 17.9149 14.5308 18.0112 13.9995 18.0016C12.9386 18.0016 11.9212 17.5802 11.1711 16.83C10.4209 16.0799 9.9995 15.0625 9.9995 14.0016C9.9995 12.9407 10.4209 11.9233 11.1711 11.1732C11.9212 10.423 12.9386 10.0016 13.9995 10.0016L13.9982 10.0029ZM20.9982 5.33628C20.568 5.35349 20.1612 5.53648 19.863 5.8469C19.5647 6.15733 19.3982 6.57112 19.3982 7.00161C19.3982 7.4321 19.5647 7.84589 19.863 8.15631C20.1612 8.46674 20.568 8.64973 20.9982 8.66694C21.4402 8.66694 21.8641 8.49135 22.1767 8.17879C22.4892 7.86623 22.6648 7.4423 22.6648 7.00028C22.6648 6.55825 22.4892 6.13433 22.1767 5.82176C21.8641 5.5092 21.4402 5.33361 20.9982 5.33361V5.33628Z" fill="white"/>
</svg>
